<svg xmlns="http://www.w3.org/2000/svg" xmlns:xlink="http://www.w3.org/1999/xlink" contentStyleType="text/css" data-diagram-type="ACTIVITY" height="1470px" preserveAspectRatio="none" style="width:864px;height:1470px;background:#FFFFFF;" version="1.1" viewBox="0 0 864 1470" width="864px" zoomAndPan="magnify"><defs/><g><ellipse cx="234.1558" cy="20" fill="#222222" rx="10" ry="10" style="stroke:#222222;stroke-width:1;"/><rect fill="#F1F1F1" height="33.9688" rx="12.5" ry="12.5" style="stroke:#181818;stroke-width:0.5;" width="185.5039" x="141.4038" y="50"/><text fill="#000000" font-family="sans-serif" font-size="12" lengthAdjust="spacing" textLength="165.5039" x="151.4038" y="71.1387">Load subdomains from CSV</text><rect fill="#F1F1F1" height="33.9688" rx="12.5" ry="12.5" style="stroke:#181818;stroke-width:0.5;" width="142.1621" x="163.0747" y="103.9688"/><text fill="#000000" font-family="sans-serif" font-size="12" lengthAdjust="spacing" textLength="122.1621" x="173.0747" y="125.1074">For each subdomain</text><rect fill="none" height="263.3008" style="stroke:#000000;stroke-width:1.5;" width="803.2529" x="27.063" y="147.9375"/><path d="M272.062,147.9375 L272.062,157.2344 L262.062,167.2344 L27.063,167.2344" fill="none" style="stroke:#000000;stroke-width:1.5;"/><text fill="#000000" font-family="sans-serif" font-size="14" lengthAdjust="spacing" textLength="234.999" x="30.063" y="161.9326">Authoritative Name Server Check</text><path d="M451.2485,184.0859 L451.2485,200.2188 L431.2485,204.2188 L451.2485,208.2188 L451.2485,224.3516 A0,0 0 0 0 451.2485,224.3516 L820.3159,224.3516 A0,0 0 0 0 820.3159,224.3516 L820.3159,194.0859 L810.3159,184.0859 L451.2485,184.0859 A0,0 0 0 0 451.2485,184.0859" fill="#FEFFDD" style="stroke:#181818;stroke-width:0.5;"/><path d="M810.3159,184.0859 L810.3159,194.0859 L820.3159,194.0859 L810.3159,184.0859" fill="#FEFFDD" style="stroke:#181818;stroke-width:0.5;"/><text fill="#000000" font-family="sans-serif" font-size="13" lengthAdjust="spacing" textLength="73.3027" x="457.2485" y="201.1528">Equivalent:</text><text fill="#000000" font-family="sans-serif" font-size="13" lengthAdjust="spacing" textLength="348.0674" x="457.2485" y="216.2856">`dig a &lt;subdomain&gt; @&lt;authoritative nameserver&gt;`</text><rect fill="#F1F1F1" height="33.9688" rx="12.5" ry="12.5" style="stroke:#181818;stroke-width:0.5;" width="394.1855" x="37.063" y="187.2344"/><text fill="#000000" font-family="sans-serif" font-size="12" lengthAdjust="spacing" textLength="374.1855" x="47.063" y="208.373">Resolve the subdomain against its authoritative name servers</text><rect fill="#F1F1F1" height="33.9688" rx="12.5" ry="12.5" style="stroke:#181818;stroke-width:0.5;" width="183.6113" x="142.3501" y="292.7539"/><text fill="#000000" font-family="sans-serif" font-size="12" lengthAdjust="spacing" textLength="163.6113" x="152.3501" y="313.8926">Flag as REFUSED/SERVFAIL</text><ellipse cx="234.1558" cy="366.2383" fill="none" rx="11" ry="11" style="stroke:#222222;stroke-width:1;"/><ellipse cx="234.1558" cy="366.2383" fill="#222222" rx="6" ry="6" style="stroke:#222222;stroke-width:1;"/><polygon fill="#F1F1F1" points="135.7117,244.3516,332.5999,244.3516,344.5999,256.3516,332.5999,268.3516,135.7117,268.3516,123.7117,256.3516,135.7117,244.3516" style="stroke:#181818;stroke-width:0.5;"/><text fill="#000000" font-family="sans-serif" font-size="11" lengthAdjust="spacing" textLength="19.2178" x="238.1558" y="278.562">Yes</text><text fill="#000000" font-family="sans-serif" font-size="11" lengthAdjust="spacing" textLength="196.8882" x="135.7117" y="260.1597">Response is REFUSED or SERVFAIL?</text><text fill="#000000" font-family="sans-serif" font-size="11" lengthAdjust="spacing" textLength="14.9585" x="344.5999" y="253.7573">No</text><rect fill="none" height="286.7148" style="stroke:#000000;stroke-width:1.5;" width="812.8101" x="40.4165" y="421.2383"/><path d="M179.8071,421.2383 L179.8071,430.5352 L169.8071,440.5352 L40.4165,440.5352" fill="none" style="stroke:#000000;stroke-width:1.5;"/><text fill="#000000" font-family="sans-serif" font-size="14" lengthAdjust="spacing" textLength="129.3906" x="43.4165" y="435.2334">Apex DNS Resolve</text><path d="M437.895,450.5352 L437.895,481.8008 L417.895,485.8008 L437.895,489.8008 L437.895,521.0664 A0,0 0 0 0 437.895,521.0664 L843.2266,521.0664 A0,0 0 0 0 843.2266,521.0664 L843.2266,460.5352 L833.2266,450.5352 L437.895,450.5352 A0,0 0 0 0 437.895,450.5352" fill="#FEFFDD" style="stroke:#181818;stroke-width:0.5;"/><path d="M833.2266,450.5352 L833.2266,460.5352 L843.2266,460.5352 L833.2266,450.5352" fill="#FEFFDD" style="stroke:#181818;stroke-width:0.5;"/><text fill="#000000" font-family="sans-serif" font-size="13" lengthAdjust="spacing" textLength="384.0776" x="443.895" y="467.6021">Apex is the effective top level domain plus one more label.</text><text fill="#000000" font-family="sans-serif" font-size="13" lengthAdjust="spacing" textLength="384.3315" x="443.895" y="482.7349">For example, apex for "foo.bar.golang.org" is "golang.org".</text><text fill="#000000" font-family="sans-serif" font-size="13" lengthAdjust="spacing" textLength="73.3027" x="443.895" y="497.8677">Equivalent:</text><text fill="#000000" font-family="sans-serif" font-size="13" lengthAdjust="spacing" textLength="339.3076" x="443.895" y="513.0005">`dig a &lt;subdomain apex&gt; @&lt;public nameserver&gt;`</text><rect fill="#F1F1F1" height="33.9688" rx="12.5" ry="12.5" style="stroke:#181818;stroke-width:0.5;" width="367.4785" x="50.4165" y="468.8164"/><text fill="#000000" font-family="sans-serif" font-size="12" lengthAdjust="spacing" textLength="347.4785" x="60.4165" y="489.9551">Resolve the subdomain's apex against public nameserver</text><rect fill="#F1F1F1" height="33.9688" rx="12.5" ry="12.5" style="stroke:#181818;stroke-width:0.5;" width="204.4297" x="131.9409" y="589.4688"/><text fill="#000000" font-family="sans-serif" font-size="12" lengthAdjust="spacing" textLength="184.4297" x="141.9409" y="610.6074">Flag as Dead Apex DNS record</text><ellipse cx="234.1558" cy="662.9531" fill="none" rx="11" ry="11" style="stroke:#222222;stroke-width:1;"/><ellipse cx="234.1558" cy="662.9531" fill="#222222" rx="6" ry="6" style="stroke:#222222;stroke-width:1;"/><polygon fill="#F1F1F1" points="99.7764,541.0664,368.5352,541.0664,380.5352,553.0664,368.5352,565.0664,99.7764,565.0664,87.7764,553.0664,99.7764,541.0664" style="stroke:#181818;stroke-width:0.5;"/><text fill="#000000" font-family="sans-serif" font-size="11" lengthAdjust="spacing" textLength="19.2178" x="238.1558" y="575.2769">Yes</text><text fill="#000000" font-family="sans-serif" font-size="11" lengthAdjust="spacing" textLength="268.7588" x="99.7764" y="556.8745">Response is NXDOMAIN, REFUSED, or SERVFAIL?</text><text fill="#000000" font-family="sans-serif" font-size="11" lengthAdjust="spacing" textLength="14.9585" x="380.5352" y="550.4722">No</text><rect fill="none" height="263.3008" style="stroke:#000000;stroke-width:1.5;" width="688.9238" x="61.8267" y="717.9531"/><path d="M244.9331,717.9531 L244.9331,727.25 L234.9331,737.25 L61.8267,737.25" fill="none" style="stroke:#000000;stroke-width:1.5;"/><text fill="#000000" font-family="sans-serif" font-size="14" lengthAdjust="spacing" textLength="173.1064" x="64.8267" y="731.9482">Subdomain DNS Resolve</text><path d="M416.4849,754.1016 L416.4849,770.2344 L396.4849,774.2344 L416.4849,778.2344 L416.4849,794.3672 A0,0 0 0 0 416.4849,794.3672 L740.7505,794.3672 A0,0 0 0 0 740.7505,794.3672 L740.7505,764.1016 L730.7505,754.1016 L416.4849,754.1016 A0,0 0 0 0 416.4849,754.1016" fill="#FEFFDD" style="stroke:#181818;stroke-width:0.5;"/><path d="M730.7505,754.1016 L730.7505,764.1016 L740.7505,764.1016 L730.7505,754.1016" fill="#FEFFDD" style="stroke:#181818;stroke-width:0.5;"/><text fill="#000000" font-family="sans-serif" font-size="13" lengthAdjust="spacing" textLength="73.3027" x="422.4849" y="771.1685">Equivalent:</text><text fill="#000000" font-family="sans-serif" font-size="13" lengthAdjust="spacing" textLength="303.2656" x="422.4849" y="786.3013">`dig a &lt;subdomain&gt; @&lt;public nameserver&gt;`</text><rect fill="#F1F1F1" height="33.9688" rx="12.5" ry="12.5" style="stroke:#181818;stroke-width:0.5;" width="324.6582" x="71.8267" y="757.25"/><text fill="#000000" font-family="sans-serif" font-size="12" lengthAdjust="spacing" textLength="304.6582" x="81.8267" y="778.3887">Resolve the subdomain against public nameserver</text><rect fill="#F1F1F1" height="33.9688" rx="12.5" ry="12.5" style="stroke:#181818;stroke-width:0.5;" width="227.1172" x="120.5972" y="862.7695"/><text fill="#000000" font-family="sans-serif" font-size="12" lengthAdjust="spacing" textLength="207.1172" x="130.5972" y="883.9082">Flag as Potential Dead DNS record</text><ellipse cx="234.1558" cy="936.2539" fill="none" rx="11" ry="11" style="stroke:#222222;stroke-width:1;"/><ellipse cx="234.1558" cy="936.2539" fill="#222222" rx="6" ry="6" style="stroke:#222222;stroke-width:1;"/><polygon fill="#F1F1F1" points="99.7764,814.3672,368.5352,814.3672,380.5352,826.3672,368.5352,838.3672,99.7764,838.3672,87.7764,826.3672,99.7764,814.3672" style="stroke:#181818;stroke-width:0.5;"/><text fill="#000000" font-family="sans-serif" font-size="11" lengthAdjust="spacing" textLength="19.2178" x="238.1558" y="848.5776">Yes</text><text fill="#000000" font-family="sans-serif" font-size="11" lengthAdjust="spacing" textLength="268.7588" x="99.7764" y="830.1753">Response is NXDOMAIN, REFUSED, or SERVFAIL?</text><text fill="#000000" font-family="sans-serif" font-size="11" lengthAdjust="spacing" textLength="14.9585" x="380.5352" y="823.7729">No</text><rect fill="none" height="318.2031" style="stroke:#000000;stroke-width:1.5;" width="568.0625" x="11" y="991.2539"/><path d="M136.3633,991.2539 L136.3633,1000.5508 L126.3633,1010.5508 L11,1010.5508" fill="none" style="stroke:#000000;stroke-width:1.5;"/><text fill="#000000" font-family="sans-serif" font-size="14" lengthAdjust="spacing" textLength="115.3633" x="14" y="1005.249">Signature Check</text><rect fill="#F1F1F1" height="33.9688" rx="12.5" ry="12.5" style="stroke:#181818;stroke-width:0.5;" width="348.4414" x="59.9351" y="1027.5508"/><text fill="#000000" font-family="sans-serif" font-size="12" lengthAdjust="spacing" textLength="328.4414" x="69.9351" y="1048.6895">Check subdomain response against provider signature</text><polygon fill="#F1F1F1" points="204.8403,1081.5195,263.4712,1081.5195,275.4712,1093.5195,263.4712,1105.5195,204.8403,1105.5195,192.8403,1093.5195,204.8403,1081.5195" style="stroke:#181818;stroke-width:0.5;"/><text fill="#000000" font-family="sans-serif" font-size="11" lengthAdjust="spacing" textLength="58.6309" x="204.8403" y="1097.3276">Curl error?</text><text fill="#000000" font-family="sans-serif" font-size="11" lengthAdjust="spacing" textLength="19.2178" x="173.6226" y="1090.9253">Yes</text><text fill="#000000" font-family="sans-serif" font-size="11" lengthAdjust="spacing" textLength="14.9585" x="275.4712" y="1090.9253">No</text><rect fill="#F1F1F1" height="33.9688" rx="12.5" ry="12.5" style="stroke:#181818;stroke-width:0.5;" width="113.8555" x="23" y="1115.5195"/><text fill="#000000" font-family="sans-serif" font-size="12" lengthAdjust="spacing" textLength="93.8555" x="33" y="1136.6582">Flag as inactive</text><rect fill="#F1F1F1" height="33.9688" rx="12.5" ry="12.5" style="stroke:#181818;stroke-width:0.5;" width="296.9492" x="239.9092" y="1115.5195"/><text fill="#000000" font-family="sans-serif" font-size="12" lengthAdjust="spacing" textLength="276.9492" x="249.9092" y="1136.6582">Check if response matches provider signature</text><polygon fill="#F1F1F1" points="332.793,1169.4883,443.9746,1169.4883,455.9746,1181.4883,443.9746,1193.4883,332.793,1193.4883,320.793,1181.4883,332.793,1169.4883" style="stroke:#181818;stroke-width:0.5;"/><text fill="#000000" font-family="sans-serif" font-size="11" lengthAdjust="spacing" textLength="111.1816" x="332.793" y="1185.2964">Signature matched?</text><text fill="#000000" font-family="sans-serif" font-size="11" lengthAdjust="spacing" textLength="19.2178" x="301.5752" y="1178.894">Yes</text><text fill="#000000" font-family="sans-serif" font-size="11" lengthAdjust="spacing" textLength="14.9585" x="455.9746" y="1178.894">No</text><rect fill="#F1F1F1" height="33.9688" rx="12.5" ry="12.5" style="stroke:#181818;stroke-width:0.5;" width="241.9531" x="166.8555" y="1203.4883"/><text fill="#000000" font-family="sans-serif" font-size="12" lengthAdjust="spacing" textLength="221.9531" x="176.8555" y="1224.627">Flag as inactive (Signature matched)</text><rect fill="#F1F1F1" height="33.9688" rx="12.5" ry="12.5" style="stroke:#181818;stroke-width:0.5;" width="120.2539" x="428.8086" y="1203.4883"/><text fill="#000000" font-family="sans-serif" font-size="12" lengthAdjust="spacing" textLength="100.2539" x="438.8086" y="1224.627">Domain is active</text><polygon fill="#F1F1F1" points="388.3838,1243.457,400.3838,1255.457,388.3838,1267.457,376.3838,1255.457,388.3838,1243.457" style="stroke:#181818;stroke-width:0.5;"/><polygon fill="#F1F1F1" points="234.1558,1273.457,246.1558,1285.457,234.1558,1297.457,222.1558,1285.457,234.1558,1273.457" style="stroke:#181818;stroke-width:0.5;"/><rect fill="#F1F1F1" height="33.9688" rx="12.5" ry="12.5" style="stroke:#181818;stroke-width:0.5;" width="149.8438" x="159.2339" y="1329.457"/><text fill="#000000" font-family="sans-serif" font-size="12" lengthAdjust="spacing" textLength="129.8438" x="169.2339" y="1350.5957">Output results to CSV</text><rect fill="#F1F1F1" height="33.9688" rx="12.5" ry="12.5" style="stroke:#181818;stroke-width:0.5;" width="145.1563" x="161.5776" y="1383.4258"/><text fill="#000000" font-family="sans-serif" font-size="12" lengthAdjust="spacing" textLength="125.1563" x="171.5776" y="1404.5645">Output errors to CSV</text><ellipse cx="234.1558" cy="1448.3945" fill="none" rx="11" ry="11" style="stroke:#222222;stroke-width:1;"/><ellipse cx="234.1558" cy="1448.3945" fill="#222222" rx="6" ry="6" style="stroke:#222222;stroke-width:1;"/><line style="stroke:#181818;stroke-width:1;" x1="234.1558" x2="234.1558" y1="30" y2="50"/><polygon fill="#181818" points="230.1558,40,234.1558,50,238.1558,40,234.1558,44" style="stroke:#181818;stroke-width:1;"/><line style="stroke:#181818;stroke-width:1;" x1="234.1558" x2="234.1558" y1="83.9688" y2="103.9688"/><polygon fill="#181818" points="230.1558,93.9688,234.1558,103.9688,238.1558,93.9688,234.1558,97.9688" style="stroke:#181818;stroke-width:1;"/><line style="stroke:#181818;stroke-width:1;" x1="234.1558" x2="234.1558" y1="326.7227" y2="355.2383"/><polygon fill="#181818" points="230.1558,345.2383,234.1558,355.2383,238.1558,345.2383,234.1558,349.2383" style="stroke:#181818;stroke-width:1;"/><line style="stroke:#181818;stroke-width:1;" x1="234.1558" x2="234.1558" y1="268.3516" y2="292.7539"/><polygon fill="#181818" points="230.1558,282.7539,234.1558,292.7539,238.1558,282.7539,234.1558,286.7539" style="stroke:#181818;stroke-width:1;"/><line style="stroke:#181818;stroke-width:1;" x1="344.5999" x2="356.5999" y1="256.3516" y2="256.3516"/><polygon fill="#181818" points="352.5999,325.2383,356.5999,335.2383,360.5999,325.2383,356.5999,329.2383" style="stroke:#181818;stroke-width:1;"/><line style="stroke:#181818;stroke-width:1;" x1="356.5999" x2="356.5999" y1="256.3516" y2="399.2383"/><line style="stroke:#181818;stroke-width:1;" x1="356.5999" x2="234.1558" y1="399.2383" y2="399.2383"/><line style="stroke:#181818;stroke-width:1;" x1="234.1558" x2="234.1558" y1="399.2383" y2="468.8164"/><polygon fill="#181818" points="230.1558,458.8164,234.1558,468.8164,238.1558,458.8164,234.1558,462.8164" style="stroke:#181818;stroke-width:1;"/><line style="stroke:#181818;stroke-width:1;" x1="234.1558" x2="234.1558" y1="221.2031" y2="244.3516"/><polygon fill="#181818" points="230.1558,234.3516,234.1558,244.3516,238.1558,234.3516,234.1558,238.3516" style="stroke:#181818;stroke-width:1;"/><line style="stroke:#181818;stroke-width:1;" x1="234.1558" x2="234.1558" y1="137.9375" y2="187.2344"/><polygon fill="#181818" points="230.1558,177.2344,234.1558,187.2344,238.1558,177.2344,234.1558,181.2344" style="stroke:#181818;stroke-width:1;"/><line style="stroke:#181818;stroke-width:1;" x1="234.1558" x2="234.1558" y1="623.4375" y2="651.9531"/><polygon fill="#181818" points="230.1558,641.9531,234.1558,651.9531,238.1558,641.9531,234.1558,645.9531" style="stroke:#181818;stroke-width:1;"/><line style="stroke:#181818;stroke-width:1;" x1="234.1558" x2="234.1558" y1="565.0664" y2="589.4688"/><polygon fill="#181818" points="230.1558,579.4688,234.1558,589.4688,238.1558,579.4688,234.1558,583.4688" style="stroke:#181818;stroke-width:1;"/><line style="stroke:#181818;stroke-width:1;" x1="380.5352" x2="392.5352" y1="553.0664" y2="553.0664"/><polygon fill="#181818" points="388.5352,621.9531,392.5352,631.9531,396.5352,621.9531,392.5352,625.9531" style="stroke:#181818;stroke-width:1;"/><line style="stroke:#181818;stroke-width:1;" x1="392.5352" x2="392.5352" y1="553.0664" y2="695.9531"/><line style="stroke:#181818;stroke-width:1;" x1="392.5352" x2="234.1558" y1="695.9531" y2="695.9531"/><line style="stroke:#181818;stroke-width:1;" x1="234.1558" x2="234.1558" y1="695.9531" y2="757.25"/><polygon fill="#181818" points="230.1558,747.25,234.1558,757.25,238.1558,747.25,234.1558,751.25" style="stroke:#181818;stroke-width:1;"/><line style="stroke:#181818;stroke-width:1;" x1="234.1558" x2="234.1558" y1="502.7852" y2="541.0664"/><polygon fill="#181818" points="230.1558,531.0664,234.1558,541.0664,238.1558,531.0664,234.1558,535.0664" style="stroke:#181818;stroke-width:1;"/><line style="stroke:#181818;stroke-width:1;" x1="234.1558" x2="234.1558" y1="896.7383" y2="925.2539"/><polygon fill="#181818" points="230.1558,915.2539,234.1558,925.2539,238.1558,915.2539,234.1558,919.2539" style="stroke:#181818;stroke-width:1;"/><line style="stroke:#181818;stroke-width:1;" x1="234.1558" x2="234.1558" y1="838.3672" y2="862.7695"/><polygon fill="#181818" points="230.1558,852.7695,234.1558,862.7695,238.1558,852.7695,234.1558,856.7695" style="stroke:#181818;stroke-width:1;"/><line style="stroke:#181818;stroke-width:1;" x1="380.5352" x2="392.5352" y1="826.3672" y2="826.3672"/><polygon fill="#181818" points="388.5352,895.2539,392.5352,905.2539,396.5352,895.2539,392.5352,899.2539" style="stroke:#181818;stroke-width:1;"/><line style="stroke:#181818;stroke-width:1;" x1="392.5352" x2="392.5352" y1="826.3672" y2="969.2539"/><line style="stroke:#181818;stroke-width:1;" x1="392.5352" x2="234.1558" y1="969.2539" y2="969.2539"/><line style="stroke:#181818;stroke-width:1;" x1="234.1558" x2="234.1558" y1="969.2539" y2="1027.5508"/><polygon fill="#181818" points="230.1558,1017.5508,234.1558,1027.5508,238.1558,1017.5508,234.1558,1021.5508" style="stroke:#181818;stroke-width:1;"/><line style="stroke:#181818;stroke-width:1;" x1="234.1558" x2="234.1558" y1="791.2188" y2="814.3672"/><polygon fill="#181818" points="230.1558,804.3672,234.1558,814.3672,238.1558,804.3672,234.1558,808.3672" style="stroke:#181818;stroke-width:1;"/><line style="stroke:#181818;stroke-width:1;" x1="320.793" x2="287.832" y1="1181.4883" y2="1181.4883"/><line style="stroke:#181818;stroke-width:1;" x1="287.832" x2="287.832" y1="1181.4883" y2="1203.4883"/><polygon fill="#181818" points="283.832,1193.4883,287.832,1203.4883,291.832,1193.4883,287.832,1197.4883" style="stroke:#181818;stroke-width:1;"/><line style="stroke:#181818;stroke-width:1;" x1="455.9746" x2="488.9355" y1="1181.4883" y2="1181.4883"/><line style="stroke:#181818;stroke-width:1;" x1="488.9355" x2="488.9355" y1="1181.4883" y2="1203.4883"/><polygon fill="#181818" points="484.9355,1193.4883,488.9355,1203.4883,492.9355,1193.4883,488.9355,1197.4883" style="stroke:#181818;stroke-width:1;"/><line style="stroke:#181818;stroke-width:1;" x1="287.832" x2="287.832" y1="1237.457" y2="1255.457"/><line style="stroke:#181818;stroke-width:1;" x1="287.832" x2="376.3838" y1="1255.457" y2="1255.457"/><polygon fill="#181818" points="366.3838,1251.457,376.3838,1255.457,366.3838,1259.457,370.3838,1255.457" style="stroke:#181818;stroke-width:1;"/><line style="stroke:#181818;stroke-width:1;" x1="488.9355" x2="488.9355" y1="1237.457" y2="1255.457"/><line style="stroke:#181818;stroke-width:1;" x1="488.9355" x2="400.3838" y1="1255.457" y2="1255.457"/><polygon fill="#181818" points="410.3838,1251.457,400.3838,1255.457,410.3838,1259.457,406.3838,1255.457" style="stroke:#181818;stroke-width:1;"/><line style="stroke:#181818;stroke-width:1;" x1="388.3838" x2="388.3838" y1="1149.4883" y2="1169.4883"/><polygon fill="#181818" points="384.3838,1159.4883,388.3838,1169.4883,392.3838,1159.4883,388.3838,1163.4883" style="stroke:#181818;stroke-width:1;"/><line style="stroke:#181818;stroke-width:1;" x1="192.8403" x2="79.9277" y1="1093.5195" y2="1093.5195"/><line style="stroke:#181818;stroke-width:1;" x1="79.9277" x2="79.9277" y1="1093.5195" y2="1115.5195"/><polygon fill="#181818" points="75.9277,1105.5195,79.9277,1115.5195,83.9277,1105.5195,79.9277,1109.5195" style="stroke:#181818;stroke-width:1;"/><line style="stroke:#181818;stroke-width:1;" x1="275.4712" x2="388.3838" y1="1093.5195" y2="1093.5195"/><line style="stroke:#181818;stroke-width:1;" x1="388.3838" x2="388.3838" y1="1093.5195" y2="1115.5195"/><polygon fill="#181818" points="384.3838,1105.5195,388.3838,1115.5195,392.3838,1105.5195,388.3838,1109.5195" style="stroke:#181818;stroke-width:1;"/><line style="stroke:#181818;stroke-width:1;" x1="79.9277" x2="79.9277" y1="1149.4883" y2="1285.457"/><line style="stroke:#181818;stroke-width:1;" x1="79.9277" x2="222.1558" y1="1285.457" y2="1285.457"/><polygon fill="#181818" points="212.1558,1281.457,222.1558,1285.457,212.1558,1289.457,216.1558,1285.457" style="stroke:#181818;stroke-width:1;"/><line style="stroke:#181818;stroke-width:1;" x1="388.3838" x2="388.3838" y1="1267.457" y2="1285.457"/><line style="stroke:#181818;stroke-width:1;" x1="388.3838" x2="246.1558" y1="1285.457" y2="1285.457"/><polygon fill="#181818" points="256.1558,1281.457,246.1558,1285.457,256.1558,1289.457,252.1558,1285.457" style="stroke:#181818;stroke-width:1;"/><line style="stroke:#181818;stroke-width:1;" x1="234.1558" x2="234.1558" y1="1061.5195" y2="1081.5195"/><polygon fill="#181818" points="230.1558,1071.5195,234.1558,1081.5195,238.1558,1071.5195,234.1558,1075.5195" style="stroke:#181818;stroke-width:1;"/><line style="stroke:#181818;stroke-width:1;" x1="234.1558" x2="234.1558" y1="1297.457" y2="1329.457"/><polygon fill="#181818" points="230.1558,1319.457,234.1558,1329.457,238.1558,1319.457,234.1558,1323.457" style="stroke:#181818;stroke-width:1;"/><line style="stroke:#181818;stroke-width:1;" x1="234.1558" x2="234.1558" y1="1363.4258" y2="1383.4258"/><polygon fill="#181818" points="230.1558,1373.4258,234.1558,1383.4258,238.1558,1373.4258,234.1558,1377.4258" style="stroke:#181818;stroke-width:1;"/><line style="stroke:#181818;stroke-width:1;" x1="234.1558" x2="234.1558" y1="1417.3945" y2="1437.3945"/><polygon fill="#181818" points="230.1558,1427.3945,234.1558,1437.3945,238.1558,1427.3945,234.1558,1431.3945" style="stroke:#181818;stroke-width:1;"/><!--SRC=[lLHDYzim4BtdLmovD87WtkDbsn0diB3rbfWktTigzjWMbJMk98U5ql_UiHr_9DaksHuAFbWZpNjltXEoJXWtcIplIIHWgtr2XP3QGcgeW7NqwFFUbWoWYFDXdwibzqadISDqLRcSZ7J2oGD2A0g42Cq13QnpZ7zCuTS4OBb3IuhtNOu348YifdCWdGLnWgDh7DlWM9y1D3a48xFSyMBpiv87eL2x9V3oEP4P2BZfSM_XyyqbN8js-ymTg9C6aN_vaodCM5z9sY982xlDzbkq2O07ZpQxn-tgxlxJl5QkOVQ4TiujFD5M2MRjJt_iZlhDjdLKraIA8MSXpLjIcKv-dvfNuWi4OGH7VzvowmDxL1_lJ2khlPBnQBGBdnfq7gY6mJJ5kF62bO720oeufb2goW9fX88CWX9xL1vtDy6_YA9Kk6YPKwvCKo9lBuoNaH8wyyXaqvfZEbfxLsJK8DP1NOnndj1vFE7tuE7BwYvSTDOlhamgGBxblUC6OpB9kzAAUl5NHlQEhAwvq__Fgg-CfvqKgZNjN_sIcHQkuairVWgQ_v57fXFScsNe81D-G6pNxnzdMrT60Hf3vWtjKelceljd2djgHkev2-7Y7ErVE5lMOOpsT799_WhzAttp5lDK5BS6hH4SsA2yStJaxFAXScNbQl6LuXVJKVj6T_N6cA4ygLFw0m00]--></g></svg>